<svg xmlns="http://www.w3.org/2000/svg" width="25" height="25.988" viewBox="0 0 20 17.988">
  <g id="Group_1" data-name="Group 1" transform="translate(-1165 130)">
    <path id="Vector-1" d="M2.444.981A2.155,2.155,0,0,0,.255,3.075,2.155,2.155,0,0,0,2.444,5.169,2.154,2.154,0,0,0,4.634,3.076,2.155,2.155,0,0,0,2.444.981Zm0,2.92a.827.827,0,1,1,0-1.652.836.836,0,0,1,.864.826A.863.863,0,0,1,2.444,3.9Z" transform="translate(1171.345 -117.181)" fill="#43464e"/>
    <path id="Vector-2" d="M2.688.981A2.155,2.155,0,0,0,.5,3.075,2.155,2.155,0,0,0,2.688,5.169,2.155,2.155,0,0,0,4.877,3.075,2.169,2.169,0,0,0,2.688.981Zm0,2.92a.827.827,0,1,1,0-1.652.836.836,0,0,1,.864.826A.863.863,0,0,1,2.688,3.9Z" transform="translate(1178.102 -117.181)" fill="#43464e"/>
    <path id="Vector" d="M19.561,3.874a2.06,2.06,0,0,0-1.579-.745H5.159l-.4-1.49A2.009,2.009,0,0,0,2.8.169H.653A.642.642,0,0,0,0,.793a.642.642,0,0,0,.653.625H2.8a.69.69,0,0,1,.674.5l2.569,9.786A2.009,2.009,0,0,0,8,13.178h8.4a1.991,1.991,0,0,0,1.958-1.47l1.579-6.2a1.786,1.786,0,0,0-.379-1.632Zm-.9,1.349-1.579,6.2a.691.691,0,0,1-.674.5H8a.69.69,0,0,1-.674-.5L5.5,4.4H17.983a.71.71,0,0,1,.548.262.612.612,0,0,1,.126.563Z" transform="translate(1165 -130.169)" fill="#43464e"/>
  </g>
</svg>